<?xml version="1.0" standalone="no"?>
<!DOCTYPE svg PUBLIC "-//W3C//DTD SVG 20010904//EN"
 "http://www.w3.org/TR/2001/REC-SVG-20010904/DTD/svg10.dtd">
<svg version="1.0" xmlns="http://www.w3.org/2000/svg"
 width="260.000000pt" height="260.000000pt" viewBox="0 0 260.000000 260.000000"
 preserveAspectRatio="xMidYMid meet">
<metadata>
Created by potrace 1.11, written by Peter Selinger 2001-2013
</metadata>
<g transform="translate(0.000000,260.000000) scale(0.100000,-0.100000)"
fill="#000000" stroke="none">
<path d="M0 1300 l0 -1300 86 0 86 0 -6 38 c-3 20 -8 89 -11 152 -3 63 -8 126
-10 140 -2 14 -7 124 -10 245 -3 121 -10 359 -15 530 -5 171 -10 577 -10 903
l0 592 -55 0 -55 0 0 -1300z"/>
<path d="M842 2330 c-1 -173 3 -281 9 -290 8 -11 9 5 6 54 -3 42 -1 63 4 55 5
-8 9 -48 9 -90 0 -80 -14 -109 -55 -109 -14 0 -16 -6 -11 -31 6 -33 -7 -69
-27 -69 -7 0 -18 -9 -25 -20 -7 -11 -19 -20 -28 -20 -11 0 -14 -8 -12 -32 2
-20 8 -32 16 -31 16 4 15 -12 -1 -40 -20 -34 -22 -141 -3 -169 9 -12 16 -32
16 -43 0 -11 9 -35 20 -53 11 -18 20 -37 20 -43 0 -6 16 -31 36 -57 l36 -47
-3 -160 -4 -160 27 -9 c16 -6 28 -19 31 -34 l5 -24 -67 6 c-71 7 -431 36 -444
36 -5 0 -5 5 -2 10 4 6 21 8 43 4 35 -7 36 -6 19 10 -10 10 -24 15 -33 12 -8
-3 -12 -2 -9 4 5 8 -29 17 -84 23 -21 3 -37 -74 -18 -88 8 -5 16 -17 20 -25 3
-9 6 -10 6 -2 1 6 5 12 10 12 5 0 8 -25 7 -55 -1 -45 -4 -55 -18 -55 -10 0
-18 6 -19 13 0 6 -5 1 -10 -12 -5 -14 -8 -30 -5 -38 3 -7 1 -15 -5 -18 -13 -9
-6 -89 9 -108 9 -10 10 -22 3 -39 -5 -14 -12 -154 -16 -311 l-8 -287 106 0
107 0 -10 25 c-10 25 -6 37 98 295 25 63 27 64 33 35 5 -21 7 -24 9 -10 1 11
4 15 6 8 3 -6 -2 -25 -10 -41 -19 -36 -40 -157 -32 -178 6 -15 8 -15 27 2 21
19 52 70 54 89 1 6 4 17 7 25 5 14 16 51 34 120 l6 25 -26 -24 c-32 -30 -33
-23 -1 39 30 60 31 69 5 45 -23 -21 -27 -4 -4 19 8 9 11 16 5 16 -5 0 -13 -4
-16 -10 -3 -5 -11 -10 -16 -10 -5 0 -2 11 7 25 12 19 20 23 29 15 9 -8 18 -3
31 18 38 59 160 191 177 191 9 1 17 8 17 16 0 13 -33 15 -237 15 -130 0 -234
2 -232 5 3 2 111 7 241 9 130 3 243 9 252 12 9 3 24 0 33 -7 14 -13 15 -9 11
44 -3 32 -1 60 4 63 15 9 8 34 -14 57 -20 20 -23 31 -20 90 2 37 7 67 10 67 4
0 17 -15 30 -33 24 -36 29 -76 10 -95 -6 -6 -10 -14 -7 -16 9 -10 175 -68 191
-67 10 0 23 -9 29 -20 6 -12 13 -19 15 -16 6 6 -26 67 -36 67 -9 0 -6 46 4 71
4 8 2 29 -4 44 -6 16 -14 52 -17 80 -3 27 -8 55 -11 60 -21 33 10 64 64 65 32
0 74 -31 74 -55 0 -8 6 -15 13 -15 9 0 8 -3 -2 -9 -17 -11 -5 -32 14 -24 9 3
15 -1 15 -11 0 -9 6 -16 14 -16 8 0 17 -6 19 -12 4 -10 8 -9 17 2 10 13 11 13
7 -2 -6 -19 22 -48 46 -48 10 0 17 -8 17 -19 0 -11 5 -23 10 -26 10 -6 7 -45
-5 -64 -3 -6 11 -13 32 -17 21 -4 43 -10 49 -15 6 -5 18 -3 29 5 18 13 52 7
78 -15 8 -6 -16 -60 -45 -101 -10 -14 -8 -23 17 -50 l30 -33 -31 28 c-49 44
-64 33 -64 -50 0 -50 18 -72 58 -73 12 0 22 -5 22 -11 0 -6 7 -8 15 -5 8 3 21
8 28 11 7 3 18 -6 25 -22 6 -16 32 -55 56 -88 24 -33 69 -110 100 -171 44 -87
58 -128 67 -190 7 -43 18 -91 26 -106 l14 -28 304 0 305 0 0 255 c0 234 -4
278 -25 245 -3 -5 -28 -10 -55 -10 -39 0 -52 4 -60 19 -29 55 9 108 85 119 42
6 51 11 53 30 3 19 -1 22 -33 22 -52 0 -73 15 -81 56 l-7 37 -76 -7 c-42 -4
-86 -13 -98 -21 -21 -14 -21 -14 -2 -52 21 -41 24 -79 10 -116 -10 -27 1 -37
38 -37 17 0 81 -58 81 -74 0 -16 -46 -45 -72 -46 -15 0 -30 -5 -33 -10 -3 -6
-1 -10 4 -10 6 0 4 -8 -4 -18 -9 -9 -27 -30 -41 -46 l-25 -30 -21 21 c-13 14
-21 33 -20 54 1 38 33 76 53 63 21 -13 51 -15 44 -4 -3 5 -1 26 4 47 12 43 1
56 -37 42 -32 -12 -38 -7 -57 50 -13 41 -14 59 -5 103 13 63 14 89 3 97 -18
14 -20 309 -2 398 8 43 7 57 -7 85 -13 25 -17 62 -19 158 0 69 2 132 6 141 6
13 29 16 125 17 65 1 123 -3 129 -8 7 -5 41 -7 78 -3 l67 6 0 91 c0 77 -3 94
-19 108 -10 8 -21 22 -23 29 -4 11 -12 11 -41 -3 -44 -21 -45 -29 -12 -72 24
-32 33 -65 18 -67 -5 0 -35 -2 -68 -4 -88 -5 -143 -13 -164 -25 -11 -5 -33
-10 -49 -10 -24 0 -32 6 -45 38 -21 48 -37 131 -37 187 0 42 12 65 24 46 4 -5
22 -7 42 -4 37 6 160 -11 204 -29 17 -7 26 -6 28 1 2 6 17 18 34 27 23 12 33
13 44 4 11 -10 15 -9 20 3 10 27 0 52 -23 55 -26 4 -63 46 -63 71 1 9 13 34
28 56 20 28 38 42 65 48 l37 9 0 234 0 234 -414 0 -415 0 6 -262 6 -263 30
-57 c17 -32 37 -58 45 -58 13 0 14 33 8 264 -4 146 -4 276 0 290 8 34 30 33
48 -2 12 -23 15 -96 17 -390 3 -355 0 -396 -28 -379 -5 3 -34 45 -64 94 l-54
88 -3 -44 c-4 -57 4 -91 23 -91 20 0 46 -53 62 -128 12 -57 36 -112 81 -184
16 -26 16 -28 -15 -66 -28 -34 -31 -44 -26 -89 2 -28 0 -54 -5 -57 -7 -4 -7
-16 -1 -34 4 -15 11 -38 13 -52 3 -14 13 -34 23 -45 37 -41 23 -101 -32 -134
-27 -16 -33 -26 -37 -60 -5 -52 6 -81 31 -81 23 0 51 -36 51 -65 0 -43 -15
-50 -105 -51 -73 -1 -87 1 -95 17 -13 23 -13 146 0 154 6 4 10 -7 10 -24 0
-17 4 -31 10 -31 13 0 30 34 30 63 0 24 27 57 47 57 6 0 17 8 24 17 9 11 10
14 2 9 -7 -4 -22 2 -35 13 -12 12 -30 21 -40 21 -10 0 -18 5 -18 11 0 5 -4 8
-9 4 -5 -3 -12 -2 -14 3 -3 4 -26 7 -51 6 -38 -1 -46 1 -44 15 2 10 -4 16 -16
16 -11 0 -21 5 -23 12 -3 7 -11 9 -20 6 -11 -4 -14 -2 -9 5 4 6 -3 16 -16 23
-34 18 -108 98 -98 104 5 3 8 18 7 33 -3 30 -44 102 -57 102 -5 0 -7 26 -4 58
7 74 6 121 -3 136 -17 26 -12 52 17 88 17 21 26 38 21 38 -6 0 -8 6 -5 14 3 8
-3 20 -14 28 -20 13 -52 78 -52 104 0 22 42 54 70 54 17 0 40 13 64 36 50 48
83 42 148 -26 l48 -50 0 40 c0 29 -4 40 -15 40 -17 0 -20 25 -5 35 12 7 -68
88 -106 108 -19 9 -39 11 -56 7 -27 -8 -138 19 -162 39 -19 16 -165 5 -185
-13 -11 -10 -30 -18 -44 -20 -14 -1 -32 -8 -40 -14 -8 -7 -16 -10 -19 -7 -3 3
-17 -6 -31 -19 -37 -35 -69 -56 -84 -56 -10 0 -13 63 -13 300 l0 300 -50 0
-50 0 -2 -42 -1 -43 -7 45 c-4 25 -8 -79 -8 -230z m1192 131 c12 -19 76 -283
76 -314 0 -24 -5 -33 -17 -33 -10 -1 -26 -4 -35 -8 -38 -17 -65 94 -67 272 -1
108 0 112 19 102 10 -5 21 -14 24 -19z m-1171 -63 c4 -29 3 -48 -3 -48 -6 0
-10 23 -10 52 0 62 5 60 13 -4z m7 -100 c-1 -28 -2 -30 -11 -15 -6 10 -8 25
-5 33 9 24 16 16 16 -18z m-19 -371 c-10 -9 -11 -8 -5 6 3 10 9 15 12 12 3 -3
0 -11 -7 -18z m1220 -377 c10 -34 9 -43 -6 -66 -17 -26 -18 -27 -31 -9 -21 28
-21 79 -2 103 17 20 27 14 39 -28z m-816 -40 c6 -5 14 -7 17 -4 5 4 22 -15 66
-71 4 -5 9 -30 10 -54 3 -36 0 -42 -13 -38 -21 9 -19 -10 5 -30 23 -20 27 -63
6 -63 -8 0 -17 4 -21 10 -4 6 -15 6 -30 0 -15 -6 -34 -6 -47 -1 -24 10 -93 79
-122 121 -23 35 -20 92 6 125 19 25 26 27 66 21 25 -3 50 -10 57 -16z m-388
-352 c-2 -24 -4 -7 -4 37 0 44 2 63 4 43 2 -21 2 -57 0 -80z m3 -122 c-7 -7
-10 4 -9 30 1 39 1 39 10 9 5 -18 5 -33 -1 -39z m-110 -136 c74 -6 150 -10
168 -10 30 0 32 -2 31 -32 -1 -74 2 -73 -175 -69 -87 2 -167 7 -176 12 -9 5
-20 18 -23 30 -4 12 -13 18 -20 15 -8 -3 -17 3 -20 14 -4 13 -19 21 -50 26
-24 3 -52 12 -62 20 -20 15 31 14 327 -6z m-300 -70 c0 -5 12 -16 28 -24 l27
-15 -47 -1 c-49 0 -67 16 -39 37 20 15 31 16 31 3z m115 -20 c3 -5 1 -10 -4
-10 -6 0 -11 5 -11 10 0 6 2 10 4 10 3 0 8 -4 11 -10z m1505 -44 c-13 -34 -34
-29 -38 9 -4 32 17 51 36 31 10 -9 10 -19 2 -40z m-1210 -55 c0 -11 -252 -23
-303 -14 -40 7 -41 7 -12 13 48 8 315 9 315 1z m978 -121 c0 -30 -3 -64 -7
-75 -13 -33 -24 54 -15 122 6 47 9 53 15 33 4 -14 7 -50 7 -80z m-1079 63 c0
-5 -3 -16 -7 -25 -6 -15 -10 -14 -31 8 l-23 24 31 0 c17 0 31 -3 30 -7z m1686
-433 c17 -19 17 -21 0 -40 -22 -24 -87 -27 -105 -5 -17 20 10 52 49 58 14 2
29 5 32 6 3 0 14 -8 24 -19z m-367 -118 c4 -24 -14 -62 -28 -62 -11 0 -13 50
-4 75 9 21 28 14 32 -13z"/>
<path d="M1155 1500 c-3 -5 0 -10 7 -10 20 0 61 -47 48 -55 -8 -5 -6 -13 5
-25 10 -11 15 -25 13 -32 -3 -7 11 -21 30 -31 35 -19 55 -16 34 5 -7 7 -12 25
-12 40 0 29 -24 40 -33 16 -3 -7 -6 -1 -6 14 -2 48 -68 108 -86 78z"/>
<path d="M1141 1437 c-1 -29 23 -97 35 -97 3 0 3 8 -1 18 -4 9 -13 37 -20 62
-11 37 -13 40 -14 17z"/>
<path d="M1335 2590 c3 -5 6 -102 6 -215 0 -114 3 -213 6 -221 16 -43 23 21
23 222 0 219 0 224 -21 224 -11 0 -18 -4 -14 -10z"/>
<path d="M1416 2568 c4 -18 8 -42 9 -53 1 -11 8 -33 17 -50 28 -56 50 -155 43
-195 -6 -34 -4 -39 17 -46 13 -4 34 -6 47 -5 29 3 41 -13 41 -61 0 -38 17 -60
30 -38 5 9 19 2 47 -24 22 -20 43 -36 47 -36 3 0 6 122 5 270 l0 270 -79 0
-80 0 0 -45 c0 -26 12 -76 30 -120 36 -90 36 -97 8 -93 -16 2 -39 36 -92 130
-70 126 -106 164 -90 96z"/>
<path d="M345 1734 c-17 -8 -34 -19 -38 -24 -11 -10 2 -420 13 -420 6 0 50 85
98 190 9 19 27 47 40 62 13 14 21 31 17 38 -4 6 -8 22 -10 36 -2 25 -44 91
-74 118 -15 14 -20 14 -46 0z"/>
<path d="M1742 1638 c6 -18 28 -21 28 -4 0 9 -7 16 -16 16 -9 0 -14 -5 -12
-12z"/>
<path d="M1685 1569 c-25 -16 -27 -19 -10 -19 11 0 34 9 50 20 25 16 26 20 10
19 -11 0 -33 -9 -50 -20z"/>
<path d="M1885 1419 c-4 -6 -4 -13 -1 -16 8 -8 36 5 36 17 0 13 -27 13 -35 -1z"/>
<path d="M2332 1412 c-19 -10 -41 -30 -50 -45 -15 -24 -15 -29 -2 -37 26 -17
42 -11 76 26 34 36 45 74 21 74 -7 0 -27 -8 -45 -18z"/>
<path d="M783 1335 c0 -14 3 -22 8 -19 5 3 9 11 9 19 0 8 -4 16 -9 19 -5 3 -8
-5 -8 -19z"/>
<path d="M1842 1289 c-13 -16 -19 -29 -13 -29 14 0 41 29 41 46 0 18 -1 18
-28 -17z"/>
<path d="M785 1280 c-3 -5 -1 -10 4 -10 6 0 11 5 11 10 0 6 -2 10 -4 10 -3 0
-8 -4 -11 -10z"/>
<path d="M319 1203 c-2 -20 3 -108 7 -112 2 -2 12 6 22 19 23 29 16 93 -11 98
-9 2 -17 0 -18 -5z"/>
<path d="M2592 835 c0 -16 2 -22 5 -12 2 9 2 23 0 30 -3 6 -5 -1 -5 -18z"/>
<path d="M1352 564 c10 -10 20 -15 24 -12 3 4 -5 12 -18 18 -22 12 -22 12 -6
-6z"/>
<path d="M726 323 c-6 -14 -5 -15 5 -6 7 7 10 15 7 18 -3 3 -9 -2 -12 -12z"/>
<path d="M658 43 c-31 -36 -30 -43 1 -43 28 0 31 3 31 30 0 34 -10 38 -32 13z"/>
<path d="M192 28 c-20 -20 -14 -28 19 -28 24 0 30 3 25 16 -3 9 -6 18 -6 20 0
9 -27 3 -38 -8z"/>
</g>
</svg>
